<mxfile host="65bd71144e" pages="3">
    <diagram name="Page-1" id="41IyOIaPzitEFHbLT_QW">
        <mxGraphModel dx="1356" dy="776" grid="1" gridSize="10" guides="1" tooltips="1" connect="1" arrows="1" fold="1" page="1" pageScale="1" pageWidth="827" pageHeight="1169" math="0" shadow="0">
            <root>
                <mxCell id="0"/>
                <mxCell id="1" parent="0"/>
                <mxCell id="t1QTCakGpogwvz9gM9DU-9" style="edgeStyle=orthogonalEdgeStyle;rounded=0;orthogonalLoop=1;jettySize=auto;html=1;exitX=1;exitY=0.5;exitDx=0;exitDy=0;" parent="1" source="t1QTCakGpogwvz9gM9DU-1" target="t1QTCakGpogwvz9gM9DU-5" edge="1">
                    <mxGeometry relative="1" as="geometry"/>
                </mxCell>
                <mxCell id="t1QTCakGpogwvz9gM9DU-1" value="Users" style="rounded=1;whiteSpace=wrap;html=1;" parent="1" vertex="1">
                    <mxGeometry x="40" y="140" width="120" height="40" as="geometry"/>
                </mxCell>
                <mxCell id="n7BKyOxn0yAZWreMX-of-5" style="edgeStyle=orthogonalEdgeStyle;rounded=0;orthogonalLoop=1;jettySize=auto;html=1;exitX=1;exitY=0.5;exitDx=0;exitDy=0;" parent="1" source="t1QTCakGpogwvz9gM9DU-4" target="n7BKyOxn0yAZWreMX-of-4" edge="1">
                    <mxGeometry relative="1" as="geometry"/>
                </mxCell>
                <mxCell id="t1QTCakGpogwvz9gM9DU-4" value="Messages" style="rounded=1;whiteSpace=wrap;html=1;" parent="1" vertex="1">
                    <mxGeometry x="40" y="540" width="120" height="40" as="geometry"/>
                </mxCell>
                <mxCell id="t1QTCakGpogwvz9gM9DU-5" value="&lt;b style=&quot;font-size: 15px;&quot;&gt;&lt;font style=&quot;font-size: 15px;&quot;&gt;User id&amp;nbsp; (Required) (Unique)&lt;/font&gt;&lt;/b&gt;&lt;div style=&quot;font-size: 15px;&quot;&gt;&lt;b&gt;&lt;font style=&quot;font-size: 15px;&quot;&gt;User Name&amp;nbsp;&amp;nbsp;&lt;span style=&quot;background-color: initial;&quot;&gt;(Required) (Unique)&lt;/span&gt;&lt;/font&gt;&lt;/b&gt;&lt;/div&gt;&lt;div style=&quot;font-size: 15px;&quot;&gt;&lt;b&gt;&lt;font style=&quot;font-size: 15px;&quot;&gt;Email&amp;nbsp;&lt;span style=&quot;background-color: initial;&quot;&gt;(Required)&amp;nbsp;&lt;/span&gt;&lt;/font&gt;&lt;/b&gt;&lt;/div&gt;&lt;div style=&quot;font-size: 15px;&quot;&gt;&lt;b&gt;&lt;font style=&quot;font-size: 15px;&quot;&gt;Number&lt;span style=&quot;white-space: pre;&quot;&gt;&#9;&lt;/span&gt;(int)&lt;/font&gt;&lt;/b&gt;&lt;/div&gt;&lt;div style=&quot;font-size: 15px;&quot;&gt;&lt;b style=&quot;background-color: initial;&quot;&gt;Chats&amp;lt;List&amp;gt;(Chat Id)&amp;nbsp;&lt;/b&gt;&lt;br&gt;&lt;/div&gt;&lt;div style=&quot;font-size: 15px;&quot;&gt;&lt;b&gt;&lt;font style=&quot;font-size: 15px;&quot;&gt;Is Online&amp;nbsp;&lt;span style=&quot;white-space: pre;&quot;&gt;&#9;&lt;/span&gt;(bool)&lt;/font&gt;&lt;/b&gt;&lt;/div&gt;&lt;div style=&quot;font-size: 15px;&quot;&gt;&lt;b&gt;&lt;font style=&quot;font-size: 15px;&quot;&gt;Last Seen&amp;nbsp; (date time)&lt;/font&gt;&lt;/b&gt;&lt;/div&gt;&lt;div style=&quot;font-size: 15px;&quot;&gt;&lt;b&gt;&lt;font style=&quot;font-size: 15px;&quot;&gt;Created At (date time)&lt;/font&gt;&lt;/b&gt;&lt;/div&gt;&lt;div style=&quot;font-size: 15px;&quot;&gt;&lt;b&gt;&lt;font style=&quot;font-size: 15px;&quot;&gt;Last Updated At&amp;nbsp;&lt;span style=&quot;background-color: initial;&quot;&gt;(date time)&lt;/span&gt;&lt;/font&gt;&lt;/b&gt;&lt;/div&gt;&lt;div style=&quot;font-size: 15px;&quot;&gt;&lt;b&gt;&lt;font style=&quot;font-size: 15px;&quot;&gt;About&amp;nbsp; (String)&lt;/font&gt;&lt;/b&gt;&lt;/div&gt;&lt;div style=&quot;font-size: 15px;&quot;&gt;&lt;b&gt;&lt;font style=&quot;font-size: 15px;&quot;&gt;Calls&amp;lt;List&amp;gt;&lt;/font&gt;&lt;/b&gt;&lt;/div&gt;&lt;div style=&quot;font-size: 15px;&quot;&gt;&lt;b&gt;&lt;font style=&quot;font-size: 15px;&quot;&gt;Video Chats&amp;lt;List&amp;gt;&lt;/font&gt;&lt;/b&gt;&lt;/div&gt;&lt;div style=&quot;font-size: 15px;&quot;&gt;&lt;br&gt;&lt;/div&gt;" style="whiteSpace=wrap;html=1;aspect=fixed;align=left;" parent="1" vertex="1">
                    <mxGeometry x="240" y="40" width="240" height="240" as="geometry"/>
                </mxCell>
                <mxCell id="n7BKyOxn0yAZWreMX-of-3" style="edgeStyle=orthogonalEdgeStyle;rounded=0;orthogonalLoop=1;jettySize=auto;html=1;exitX=1;exitY=0.5;exitDx=0;exitDy=0;entryX=0;entryY=0.5;entryDx=0;entryDy=0;" parent="1" source="t1QTCakGpogwvz9gM9DU-13" target="n7BKyOxn0yAZWreMX-of-1" edge="1">
                    <mxGeometry relative="1" as="geometry"/>
                </mxCell>
                <mxCell id="t1QTCakGpogwvz9gM9DU-13" value="Chats" style="rounded=1;whiteSpace=wrap;html=1;" parent="1" vertex="1">
                    <mxGeometry x="40" y="375" width="120" height="40" as="geometry"/>
                </mxCell>
                <mxCell id="n7BKyOxn0yAZWreMX-of-1" value="&lt;b style=&quot;font-size: 15px;&quot;&gt;Chat Id&amp;nbsp; &amp;nbsp;(Unique)&lt;/b&gt;&lt;div style=&quot;font-size: 15px;&quot;&gt;&lt;b&gt;User Id&amp;lt;List&amp;gt;&amp;nbsp;&amp;nbsp;&lt;/b&gt;&lt;/div&gt;&lt;div style=&quot;font-size: 15px;&quot;&gt;&lt;b&gt;Message Id&amp;nbsp;&lt;/b&gt;&lt;/div&gt;&lt;div style=&quot;font-size: 15px;&quot;&gt;&lt;b&gt;Created At&lt;/b&gt;&lt;/div&gt;" style="rounded=0;whiteSpace=wrap;html=1;align=left;" parent="1" vertex="1">
                    <mxGeometry x="240" y="350" width="160" height="90" as="geometry"/>
                </mxCell>
                <mxCell id="n7BKyOxn0yAZWreMX-of-4" value="&lt;b style=&quot;font-size: 14px;&quot;&gt;&lt;font style=&quot;font-size: 14px;&quot;&gt;Message Id (Unique)&lt;/font&gt;&lt;/b&gt;&lt;div style=&quot;font-size: 14px;&quot;&gt;&lt;b&gt;&lt;font style=&quot;font-size: 14px;&quot;&gt;User Id&lt;/font&gt;&lt;/b&gt;&lt;/div&gt;&lt;div style=&quot;font-size: 14px;&quot;&gt;&lt;b&gt;&lt;font style=&quot;font-size: 14px;&quot;&gt;Chat Id&lt;/font&gt;&lt;/b&gt;&lt;/div&gt;&lt;div style=&quot;font-size: 14px;&quot;&gt;&lt;b&gt;&lt;font style=&quot;font-size: 14px;&quot;&gt;Massage Type&lt;/font&gt;&lt;/b&gt;&lt;/div&gt;&lt;div style=&quot;font-size: 14px;&quot;&gt;&lt;b&gt;&lt;font style=&quot;font-size: 14px;&quot;&gt;Content&lt;/font&gt;&lt;/b&gt;&lt;/div&gt;&lt;div style=&quot;font-size: 14px;&quot;&gt;&lt;b style=&quot;&quot;&gt;&lt;font style=&quot;font-size: 14px;&quot;&gt;timestamp&lt;/font&gt;&lt;/b&gt;&lt;/div&gt;" style="rounded=0;whiteSpace=wrap;html=1;align=left;" parent="1" vertex="1">
                    <mxGeometry x="240" y="500" width="160" height="120" as="geometry"/>
                </mxCell>
                <mxCell id="mNDbiobFxYbMJCLNjoCO-8" style="edgeStyle=orthogonalEdgeStyle;rounded=0;orthogonalLoop=1;jettySize=auto;html=1;exitX=1;exitY=0.5;exitDx=0;exitDy=0;" parent="1" source="mNDbiobFxYbMJCLNjoCO-1" target="mNDbiobFxYbMJCLNjoCO-2" edge="1">
                    <mxGeometry relative="1" as="geometry"/>
                </mxCell>
                <mxCell id="mNDbiobFxYbMJCLNjoCO-1" value="Calls" style="rounded=1;whiteSpace=wrap;html=1;" parent="1" vertex="1">
                    <mxGeometry x="557" y="395" width="120" height="40" as="geometry"/>
                </mxCell>
                <mxCell id="mNDbiobFxYbMJCLNjoCO-2" value="&lt;b style=&quot;font-size: 13px;&quot;&gt;&lt;font style=&quot;font-size: 13px;&quot;&gt;Call Id(Unique)&lt;/font&gt;&lt;/b&gt;&lt;div style=&quot;font-size: 13px;&quot;&gt;&lt;b&gt;&lt;font style=&quot;font-size: 13px;&quot;&gt;User Id&amp;lt;List&amp;gt;&lt;/font&gt;&lt;/b&gt;&lt;/div&gt;&lt;div style=&quot;font-size: 13px;&quot;&gt;&lt;b&gt;&lt;font style=&quot;font-size: 13px;&quot;&gt;Start Time&lt;/font&gt;&lt;/b&gt;&lt;/div&gt;&lt;div style=&quot;font-size: 13px;&quot;&gt;&lt;b&gt;&lt;font style=&quot;font-size: 13px;&quot;&gt;End Time&lt;/font&gt;&lt;/b&gt;&lt;/div&gt;&lt;div style=&quot;font-size: 13px;&quot;&gt;&lt;span style=&quot;background-color: initial;&quot;&gt;&lt;b&gt;Recording&lt;/b&gt;&lt;/span&gt;&lt;/div&gt;" style="whiteSpace=wrap;html=1;aspect=fixed;align=left;" parent="1" vertex="1">
                    <mxGeometry x="757" y="360" width="110" height="110" as="geometry"/>
                </mxCell>
                <mxCell id="mNDbiobFxYbMJCLNjoCO-11" style="edgeStyle=orthogonalEdgeStyle;rounded=0;orthogonalLoop=1;jettySize=auto;html=1;exitX=1;exitY=0.5;exitDx=0;exitDy=0;entryX=0;entryY=0.5;entryDx=0;entryDy=0;" parent="1" source="mNDbiobFxYbMJCLNjoCO-9" target="mNDbiobFxYbMJCLNjoCO-10" edge="1">
                    <mxGeometry relative="1" as="geometry"/>
                </mxCell>
                <mxCell id="mNDbiobFxYbMJCLNjoCO-9" value="Video Calls" style="rounded=1;whiteSpace=wrap;html=1;" parent="1" vertex="1">
                    <mxGeometry x="557" y="235" width="120" height="40" as="geometry"/>
                </mxCell>
                <mxCell id="mNDbiobFxYbMJCLNjoCO-10" value="&lt;b style=&quot;font-size: 13px;&quot;&gt;&lt;font style=&quot;font-size: 13px;&quot;&gt;Call Id(Unique)&lt;/font&gt;&lt;/b&gt;&lt;div style=&quot;font-size: 13px;&quot;&gt;&lt;b&gt;&lt;font style=&quot;font-size: 13px;&quot;&gt;User Id&amp;lt;List&amp;gt;&lt;/font&gt;&lt;/b&gt;&lt;/div&gt;&lt;div style=&quot;font-size: 13px;&quot;&gt;&lt;b&gt;&lt;font style=&quot;font-size: 13px;&quot;&gt;Start Time&lt;/font&gt;&lt;/b&gt;&lt;/div&gt;&lt;div style=&quot;font-size: 13px;&quot;&gt;&lt;b&gt;&lt;font style=&quot;font-size: 13px;&quot;&gt;End Time&lt;/font&gt;&lt;/b&gt;&lt;/div&gt;&lt;div style=&quot;font-size: 13px;&quot;&gt;&lt;span style=&quot;background-color: initial;&quot;&gt;&lt;b&gt;Recording&lt;/b&gt;&lt;/span&gt;&lt;/div&gt;" style="whiteSpace=wrap;html=1;aspect=fixed;align=left;" parent="1" vertex="1">
                    <mxGeometry x="757" y="200" width="110" height="110" as="geometry"/>
                </mxCell>
                <mxCell id="mNDbiobFxYbMJCLNjoCO-14" style="edgeStyle=orthogonalEdgeStyle;rounded=0;orthogonalLoop=1;jettySize=auto;html=1;exitX=1;exitY=0.5;exitDx=0;exitDy=0;entryX=0;entryY=0.5;entryDx=0;entryDy=0;" parent="1" source="mNDbiobFxYbMJCLNjoCO-12" target="mNDbiobFxYbMJCLNjoCO-13" edge="1">
                    <mxGeometry relative="1" as="geometry"/>
                </mxCell>
                <mxCell id="mNDbiobFxYbMJCLNjoCO-12" value="Status" style="rounded=1;whiteSpace=wrap;html=1;" parent="1" vertex="1">
                    <mxGeometry x="557" y="75" width="120" height="40" as="geometry"/>
                </mxCell>
                <mxCell id="mNDbiobFxYbMJCLNjoCO-13" value="&lt;b style=&quot;font-size: 15px;&quot;&gt;Status Id&amp;nbsp; &amp;nbsp;(Unique)&lt;/b&gt;&lt;div style=&quot;font-size: 15px;&quot;&gt;&lt;b&gt;User Id&lt;/b&gt;&lt;/div&gt;&lt;div style=&quot;font-size: 15px;&quot;&gt;&lt;b&gt;Seen By&amp;nbsp;&lt;/b&gt;&lt;/div&gt;&lt;div style=&quot;font-size: 15px;&quot;&gt;&lt;b&gt;Add Time&lt;/b&gt;&lt;/div&gt;&lt;div style=&quot;font-size: 15px;&quot;&gt;&lt;b&gt;Delete Time&lt;/b&gt;&lt;/div&gt;" style="rounded=0;whiteSpace=wrap;html=1;align=left;" parent="1" vertex="1">
                    <mxGeometry x="744" y="50" width="160" height="90" as="geometry"/>
                </mxCell>
                <mxCell id="mNDbiobFxYbMJCLNjoCO-16" style="edgeStyle=orthogonalEdgeStyle;rounded=0;orthogonalLoop=1;jettySize=auto;html=1;exitX=1;exitY=0.5;exitDx=0;exitDy=0;" parent="1" source="mNDbiobFxYbMJCLNjoCO-17" edge="1">
                    <mxGeometry relative="1" as="geometry">
                        <mxPoint x="757" y="585" as="targetPoint"/>
                    </mxGeometry>
                </mxCell>
                <mxCell id="mNDbiobFxYbMJCLNjoCO-17" value="Privacy" style="rounded=1;whiteSpace=wrap;html=1;" parent="1" vertex="1">
                    <mxGeometry x="557" y="565" width="120" height="40" as="geometry"/>
                </mxCell>
                <mxCell id="mNDbiobFxYbMJCLNjoCO-18" value="&lt;b style=&quot;font-size: 13px;&quot;&gt;&lt;font style=&quot;font-size: 13px;&quot;&gt;Privacy Id(Unique)&lt;/font&gt;&lt;/b&gt;&lt;div style=&quot;font-size: 13px;&quot;&gt;&lt;b&gt;&lt;font style=&quot;font-size: 13px;&quot;&gt;User Id&lt;/font&gt;&lt;/b&gt;&lt;/div&gt;&lt;div style=&quot;font-size: 13px;&quot;&gt;&lt;b&gt;Blocked&amp;nbsp;&lt;/b&gt;&lt;/div&gt;&lt;div style=&quot;font-size: 13px;&quot;&gt;&lt;b&gt;&lt;span style=&quot;white-space: pre;&quot;&gt;&#9;&lt;/span&gt;User&amp;nbsp; id&amp;lt;List&amp;gt;&lt;/b&gt;&lt;/div&gt;&lt;div style=&quot;font-size: 13px;&quot;&gt;&lt;b&gt;Show Status&amp;nbsp;&lt;/b&gt;&lt;/div&gt;&lt;div style=&quot;font-size: 13px;&quot;&gt;&lt;b&gt;&lt;span style=&quot;white-space: pre;&quot;&gt;&#9;&lt;/span&gt;User Id&amp;lt;List&amp;gt;&lt;/b&gt;&lt;/div&gt;&lt;div style=&quot;font-size: 13px;&quot;&gt;&lt;b&gt;Show Last Seen&amp;nbsp;&lt;/b&gt;&lt;/div&gt;&lt;div style=&quot;font-size: 13px;&quot;&gt;&lt;b&gt;&lt;span style=&quot;white-space: pre;&quot;&gt;&#9;&lt;/span&gt;User Id &amp;lt;List&amp;gt;&lt;/b&gt;&lt;/div&gt;&lt;div style=&quot;font-size: 13px;&quot;&gt;&lt;b&gt;Show Profile&amp;nbsp;&lt;/b&gt;&lt;/div&gt;&lt;div style=&quot;font-size: 13px;&quot;&gt;&lt;b&gt;&amp;nbsp;&lt;span style=&quot;white-space: pre;&quot;&gt;&#9;&lt;/span&gt;User Id &amp;lt;List&amp;gt;&lt;/b&gt;&lt;/div&gt;" style="whiteSpace=wrap;html=1;aspect=fixed;align=left;" parent="1" vertex="1">
                    <mxGeometry x="717" y="500" width="170" height="170" as="geometry"/>
                </mxCell>
            </root>
        </mxGraphModel>
    </diagram>
    <diagram id="ft9owfopnbnR62Sw35JV" name="Page-2">
        <mxGraphModel dx="503" dy="427" grid="1" gridSize="10" guides="1" tooltips="1" connect="1" arrows="1" fold="1" page="1" pageScale="1" pageWidth="827" pageHeight="1169" math="0" shadow="0">
            <root>
                <mxCell id="0"/>
                <mxCell id="1" parent="0"/>
                <mxCell id="ywXFigizOHiMJIwFaJqE-1" style="edgeStyle=orthogonalEdgeStyle;rounded=0;orthogonalLoop=1;jettySize=auto;html=1;exitX=0.5;exitY=1;exitDx=0;exitDy=0;entryX=0.5;entryY=0;entryDx=0;entryDy=0;" parent="1" source="ywXFigizOHiMJIwFaJqE-10" target="ywXFigizOHiMJIwFaJqE-14" edge="1">
                    <mxGeometry relative="1" as="geometry"/>
                </mxCell>
                <mxCell id="ywXFigizOHiMJIwFaJqE-2" value="1" style="edgeLabel;html=1;align=center;verticalAlign=middle;resizable=0;points=[];fontStyle=1;fontSize=13;" parent="ywXFigizOHiMJIwFaJqE-1" vertex="1" connectable="0">
                    <mxGeometry x="-0.425" y="-1" relative="1" as="geometry">
                        <mxPoint as="offset"/>
                    </mxGeometry>
                </mxCell>
                <mxCell id="ywXFigizOHiMJIwFaJqE-3" value="m" style="edgeLabel;html=1;align=center;verticalAlign=middle;resizable=0;points=[];fontSize=13;fontStyle=1" parent="ywXFigizOHiMJIwFaJqE-1" vertex="1" connectable="0">
                    <mxGeometry x="0.45" relative="1" as="geometry">
                        <mxPoint as="offset"/>
                    </mxGeometry>
                </mxCell>
                <mxCell id="ywXFigizOHiMJIwFaJqE-4" style="edgeStyle=orthogonalEdgeStyle;rounded=0;orthogonalLoop=1;jettySize=auto;html=1;exitX=1;exitY=0.5;exitDx=0;exitDy=0;entryX=0.5;entryY=0;entryDx=0;entryDy=0;" parent="1" source="ywXFigizOHiMJIwFaJqE-10" target="ywXFigizOHiMJIwFaJqE-15" edge="1">
                    <mxGeometry relative="1" as="geometry"/>
                </mxCell>
                <mxCell id="ywXFigizOHiMJIwFaJqE-5" value="1" style="edgeLabel;html=1;align=center;verticalAlign=middle;resizable=0;points=[];fontSize=13;fontStyle=1" parent="ywXFigizOHiMJIwFaJqE-4" vertex="1" connectable="0">
                    <mxGeometry x="-0.4433" y="-2" relative="1" as="geometry">
                        <mxPoint as="offset"/>
                    </mxGeometry>
                </mxCell>
                <mxCell id="ywXFigizOHiMJIwFaJqE-6" value="m" style="edgeLabel;html=1;align=center;verticalAlign=middle;resizable=0;points=[];fontStyle=1;fontSize=13;" parent="ywXFigizOHiMJIwFaJqE-4" vertex="1" connectable="0">
                    <mxGeometry x="0.7183" y="1" relative="1" as="geometry">
                        <mxPoint as="offset"/>
                    </mxGeometry>
                </mxCell>
                <mxCell id="ywXFigizOHiMJIwFaJqE-7" style="edgeStyle=orthogonalEdgeStyle;rounded=0;orthogonalLoop=1;jettySize=auto;html=1;exitX=0;exitY=0.5;exitDx=0;exitDy=0;entryX=0.5;entryY=0;entryDx=0;entryDy=0;" parent="1" source="ywXFigizOHiMJIwFaJqE-10" target="ywXFigizOHiMJIwFaJqE-16" edge="1">
                    <mxGeometry relative="1" as="geometry"/>
                </mxCell>
                <mxCell id="ywXFigizOHiMJIwFaJqE-8" value="1" style="edgeLabel;html=1;align=center;verticalAlign=middle;resizable=0;points=[];fontSize=13;fontStyle=1" parent="ywXFigizOHiMJIwFaJqE-7" vertex="1" connectable="0">
                    <mxGeometry x="-0.5817" y="1" relative="1" as="geometry">
                        <mxPoint as="offset"/>
                    </mxGeometry>
                </mxCell>
                <mxCell id="ywXFigizOHiMJIwFaJqE-9" value="m" style="edgeLabel;html=1;align=center;verticalAlign=middle;resizable=0;points=[];fontStyle=1;fontSize=13;" parent="ywXFigizOHiMJIwFaJqE-7" vertex="1" connectable="0">
                    <mxGeometry x="0.735" y="3" relative="1" as="geometry">
                        <mxPoint as="offset"/>
                    </mxGeometry>
                </mxCell>
                <mxCell id="ywXFigizOHiMJIwFaJqE-10" value="&lt;b&gt;&lt;font style=&quot;font-size: 14px;&quot;&gt;Users&lt;/font&gt;&lt;/b&gt;" style="rounded=1;whiteSpace=wrap;html=1;" parent="1" vertex="1">
                    <mxGeometry x="360" y="550" width="120" height="40" as="geometry"/>
                </mxCell>
                <mxCell id="ywXFigizOHiMJIwFaJqE-11" style="edgeStyle=orthogonalEdgeStyle;rounded=0;orthogonalLoop=1;jettySize=auto;html=1;exitX=1;exitY=0.5;exitDx=0;exitDy=0;entryX=0;entryY=0.5;entryDx=0;entryDy=0;" parent="1" source="ywXFigizOHiMJIwFaJqE-14" target="ywXFigizOHiMJIwFaJqE-15" edge="1">
                    <mxGeometry relative="1" as="geometry"/>
                </mxCell>
                <mxCell id="ywXFigizOHiMJIwFaJqE-12" value="1" style="edgeLabel;html=1;align=center;verticalAlign=middle;resizable=0;points=[];fontSize=13;fontStyle=1" parent="ywXFigizOHiMJIwFaJqE-11" vertex="1" connectable="0">
                    <mxGeometry x="-0.4867" y="-1" relative="1" as="geometry">
                        <mxPoint as="offset"/>
                    </mxGeometry>
                </mxCell>
                <mxCell id="ywXFigizOHiMJIwFaJqE-13" value="m" style="edgeLabel;html=1;align=center;verticalAlign=middle;resizable=0;points=[];fontSize=13;fontStyle=1" parent="ywXFigizOHiMJIwFaJqE-11" vertex="1" connectable="0">
                    <mxGeometry x="0.63" y="1" relative="1" as="geometry">
                        <mxPoint as="offset"/>
                    </mxGeometry>
                </mxCell>
                <mxCell id="ywXFigizOHiMJIwFaJqE-14" value="&lt;b&gt;&lt;font style=&quot;font-size: 14px;&quot;&gt;Chats&lt;/font&gt;&lt;/b&gt;" style="rounded=1;whiteSpace=wrap;html=1;" parent="1" vertex="1">
                    <mxGeometry x="360" y="680" width="120" height="40" as="geometry"/>
                </mxCell>
                <mxCell id="ywXFigizOHiMJIwFaJqE-15" value="Messages" style="rounded=1;whiteSpace=wrap;html=1;" parent="1" vertex="1">
                    <mxGeometry x="560" y="680" width="120" height="40" as="geometry"/>
                </mxCell>
                <mxCell id="ywXFigizOHiMJIwFaJqE-16" value="&lt;font style=&quot;font-size: 14px;&quot;&gt;&lt;b&gt;Status&lt;/b&gt;&lt;/font&gt;" style="rounded=1;whiteSpace=wrap;html=1;" parent="1" vertex="1">
                    <mxGeometry x="160" y="680" width="120" height="40" as="geometry"/>
                </mxCell>
                <mxCell id="I555F_gdjACZLDpTc6Wx-1" value="&lt;b&gt;&lt;font style=&quot;font-size: 14px;&quot;&gt;Video Calls&lt;/font&gt;&lt;/b&gt;" style="rounded=1;whiteSpace=wrap;html=1;" parent="1" vertex="1">
                    <mxGeometry x="160" y="460" width="120" height="40" as="geometry"/>
                </mxCell>
                <mxCell id="I555F_gdjACZLDpTc6Wx-2" style="edgeStyle=orthogonalEdgeStyle;rounded=0;orthogonalLoop=1;jettySize=auto;html=1;exitX=1;exitY=0.5;exitDx=0;exitDy=0;entryX=0.33;entryY=-0.025;entryDx=0;entryDy=0;entryPerimeter=0;" parent="1" source="I555F_gdjACZLDpTc6Wx-1" target="ywXFigizOHiMJIwFaJqE-10" edge="1">
                    <mxGeometry relative="1" as="geometry"/>
                </mxCell>
                <mxCell id="I555F_gdjACZLDpTc6Wx-3" value="1" style="edgeLabel;html=1;align=center;verticalAlign=middle;resizable=0;points=[];fontStyle=1;fontSize=13;" parent="I555F_gdjACZLDpTc6Wx-2" vertex="1" connectable="0">
                    <mxGeometry x="0.6846" y="-1" relative="1" as="geometry">
                        <mxPoint as="offset"/>
                    </mxGeometry>
                </mxCell>
                <mxCell id="I555F_gdjACZLDpTc6Wx-4" value="m" style="edgeLabel;html=1;align=center;verticalAlign=middle;resizable=0;points=[];fontSize=13;fontStyle=1" parent="I555F_gdjACZLDpTc6Wx-2" vertex="1" connectable="0">
                    <mxGeometry x="-0.5511" y="2" relative="1" as="geometry">
                        <mxPoint as="offset"/>
                    </mxGeometry>
                </mxCell>
                <mxCell id="I555F_gdjACZLDpTc6Wx-6" style="edgeStyle=orthogonalEdgeStyle;rounded=0;orthogonalLoop=1;jettySize=auto;html=1;exitX=0.5;exitY=1;exitDx=0;exitDy=0;entryX=0.5;entryY=0;entryDx=0;entryDy=0;" parent="1" source="I555F_gdjACZLDpTc6Wx-5" target="ywXFigizOHiMJIwFaJqE-10" edge="1">
                    <mxGeometry relative="1" as="geometry"/>
                </mxCell>
                <mxCell id="I555F_gdjACZLDpTc6Wx-7" value="m" style="edgeLabel;html=1;align=center;verticalAlign=middle;resizable=0;points=[];fontSize=13;fontStyle=1" parent="I555F_gdjACZLDpTc6Wx-6" vertex="1" connectable="0">
                    <mxGeometry x="-0.5491" y="-1" relative="1" as="geometry">
                        <mxPoint as="offset"/>
                    </mxGeometry>
                </mxCell>
                <mxCell id="I555F_gdjACZLDpTc6Wx-8" value="1" style="edgeLabel;html=1;align=center;verticalAlign=middle;resizable=0;points=[];fontSize=13;fontStyle=1" parent="I555F_gdjACZLDpTc6Wx-6" vertex="1" connectable="0">
                    <mxGeometry x="0.4327" y="-1" relative="1" as="geometry">
                        <mxPoint as="offset"/>
                    </mxGeometry>
                </mxCell>
                <mxCell id="I555F_gdjACZLDpTc6Wx-5" value="&lt;b&gt;&lt;font style=&quot;font-size: 14px;&quot;&gt;Video Calls&lt;/font&gt;&lt;/b&gt;" style="rounded=1;whiteSpace=wrap;html=1;" parent="1" vertex="1">
                    <mxGeometry x="360" y="400" width="120" height="40" as="geometry"/>
                </mxCell>
                <mxCell id="I555F_gdjACZLDpTc6Wx-9" value="&lt;span style=&quot;font-size: 14px;&quot;&gt;&lt;b&gt;Privacy&lt;/b&gt;&lt;/span&gt;" style="rounded=1;whiteSpace=wrap;html=1;" parent="1" vertex="1">
                    <mxGeometry x="560" y="460" width="120" height="40" as="geometry"/>
                </mxCell>
                <mxCell id="I555F_gdjACZLDpTc6Wx-10" style="edgeStyle=orthogonalEdgeStyle;rounded=0;orthogonalLoop=1;jettySize=auto;html=1;exitX=0;exitY=0.5;exitDx=0;exitDy=0;entryX=0.667;entryY=0;entryDx=0;entryDy=0;entryPerimeter=0;" parent="1" source="I555F_gdjACZLDpTc6Wx-9" target="ywXFigizOHiMJIwFaJqE-10" edge="1">
                    <mxGeometry relative="1" as="geometry"/>
                </mxCell>
                <mxCell id="I555F_gdjACZLDpTc6Wx-12" value="1" style="edgeLabel;html=1;align=center;verticalAlign=middle;resizable=0;points=[];fontStyle=1;fontSize=13;" parent="I555F_gdjACZLDpTc6Wx-10" vertex="1" connectable="0">
                    <mxGeometry x="0.6329" y="1" relative="1" as="geometry">
                        <mxPoint as="offset"/>
                    </mxGeometry>
                </mxCell>
                <mxCell id="0J_fkTbXlp9ZPbGBHIAX-1" value="1" style="edgeLabel;html=1;align=center;verticalAlign=middle;resizable=0;points=[];fontSize=13;fontStyle=1" parent="I555F_gdjACZLDpTc6Wx-10" vertex="1" connectable="0">
                    <mxGeometry x="-0.6084" y="2" relative="1" as="geometry">
                        <mxPoint as="offset"/>
                    </mxGeometry>
                </mxCell>
            </root>
        </mxGraphModel>
    </diagram>
    <diagram id="-t-n1nCYGYebrfF0sFns" name="Page-3">
        <mxGraphModel dx="746" dy="427" grid="1" gridSize="10" guides="1" tooltips="1" connect="1" arrows="1" fold="1" page="1" pageScale="1" pageWidth="827" pageHeight="1169" math="0" shadow="0">
            <root>
                <mxCell id="0"/>
                <mxCell id="1" parent="0"/>
                <mxCell id="EbcNwqEwjGE9Cd5CzF3h-1" style="edgeStyle=orthogonalEdgeStyle;rounded=0;orthogonalLoop=1;jettySize=auto;html=1;exitX=1;exitY=0.5;exitDx=0;exitDy=0;" parent="1" source="EbcNwqEwjGE9Cd5CzF3h-2" target="EbcNwqEwjGE9Cd5CzF3h-5" edge="1">
                    <mxGeometry relative="1" as="geometry"/>
                </mxCell>
                <mxCell id="EbcNwqEwjGE9Cd5CzF3h-40" style="edgeStyle=orthogonalEdgeStyle;rounded=0;orthogonalLoop=1;jettySize=auto;html=1;exitX=0.5;exitY=1;exitDx=0;exitDy=0;entryX=0.5;entryY=0;entryDx=0;entryDy=0;" parent="1" source="EbcNwqEwjGE9Cd5CzF3h-2" target="EbcNwqEwjGE9Cd5CzF3h-7" edge="1">
                    <mxGeometry relative="1" as="geometry"/>
                </mxCell>
                <mxCell id="EbcNwqEwjGE9Cd5CzF3h-41" value="1" style="edgeLabel;html=1;align=center;verticalAlign=middle;resizable=0;points=[];" parent="EbcNwqEwjGE9Cd5CzF3h-40" vertex="1" connectable="0">
                    <mxGeometry x="-0.6556" y="-1" relative="1" as="geometry">
                        <mxPoint as="offset"/>
                    </mxGeometry>
                </mxCell>
                <mxCell id="EbcNwqEwjGE9Cd5CzF3h-42" value="m" style="edgeLabel;html=1;align=center;verticalAlign=middle;resizable=0;points=[];" parent="EbcNwqEwjGE9Cd5CzF3h-40" vertex="1" connectable="0">
                    <mxGeometry x="0.6889" y="-3" relative="1" as="geometry">
                        <mxPoint as="offset"/>
                    </mxGeometry>
                </mxCell>
                <mxCell id="EbcNwqEwjGE9Cd5CzF3h-2" value="Users" style="rounded=1;whiteSpace=wrap;html=1;" parent="1" vertex="1">
                    <mxGeometry x="460" y="440" width="120" height="40" as="geometry"/>
                </mxCell>
                <mxCell id="EbcNwqEwjGE9Cd5CzF3h-3" style="edgeStyle=orthogonalEdgeStyle;rounded=0;orthogonalLoop=1;jettySize=auto;html=1;exitX=1;exitY=0.5;exitDx=0;exitDy=0;" parent="1" source="EbcNwqEwjGE9Cd5CzF3h-4" target="EbcNwqEwjGE9Cd5CzF3h-9" edge="1">
                    <mxGeometry relative="1" as="geometry"/>
                </mxCell>
                <mxCell id="EbcNwqEwjGE9Cd5CzF3h-4" value="Messages" style="rounded=1;whiteSpace=wrap;html=1;" parent="1" vertex="1">
                    <mxGeometry x="640" y="760" width="120" height="40" as="geometry"/>
                </mxCell>
                <mxCell id="EbcNwqEwjGE9Cd5CzF3h-22" style="edgeStyle=orthogonalEdgeStyle;rounded=0;orthogonalLoop=1;jettySize=auto;html=1;exitX=0.5;exitY=1;exitDx=0;exitDy=0;entryX=0.5;entryY=0;entryDx=0;entryDy=0;" parent="1" source="EbcNwqEwjGE9Cd5CzF3h-5" target="EbcNwqEwjGE9Cd5CzF3h-4" edge="1">
                    <mxGeometry relative="1" as="geometry"/>
                </mxCell>
                <mxCell id="EbcNwqEwjGE9Cd5CzF3h-23" value="1" style="edgeLabel;html=1;align=center;verticalAlign=middle;resizable=0;points=[];" parent="EbcNwqEwjGE9Cd5CzF3h-22" vertex="1" connectable="0">
                    <mxGeometry x="-0.7277" relative="1" as="geometry">
                        <mxPoint as="offset"/>
                    </mxGeometry>
                </mxCell>
                <mxCell id="EbcNwqEwjGE9Cd5CzF3h-24" value="3" style="edgeLabel;html=1;align=center;verticalAlign=middle;resizable=0;points=[];" parent="EbcNwqEwjGE9Cd5CzF3h-22" vertex="1" connectable="0">
                    <mxGeometry x="0.7569" y="1" relative="1" as="geometry">
                        <mxPoint as="offset"/>
                    </mxGeometry>
                </mxCell>
                <mxCell id="EbcNwqEwjGE9Cd5CzF3h-25" style="edgeStyle=orthogonalEdgeStyle;rounded=0;orthogonalLoop=1;jettySize=auto;html=1;exitX=1;exitY=0.75;exitDx=0;exitDy=0;" parent="1" source="EbcNwqEwjGE9Cd5CzF3h-5" target="EbcNwqEwjGE9Cd5CzF3h-20" edge="1">
                    <mxGeometry relative="1" as="geometry"/>
                </mxCell>
                <mxCell id="EbcNwqEwjGE9Cd5CzF3h-26" value="1" style="edgeLabel;html=1;align=center;verticalAlign=middle;resizable=0;points=[];" parent="EbcNwqEwjGE9Cd5CzF3h-25" vertex="1" connectable="0">
                    <mxGeometry x="-0.6147" y="1" relative="1" as="geometry">
                        <mxPoint as="offset"/>
                    </mxGeometry>
                </mxCell>
                <mxCell id="EbcNwqEwjGE9Cd5CzF3h-27" value="1" style="edgeLabel;html=1;align=center;verticalAlign=middle;resizable=0;points=[];" parent="EbcNwqEwjGE9Cd5CzF3h-25" vertex="1" connectable="0">
                    <mxGeometry x="0.6604" y="-2" relative="1" as="geometry">
                        <mxPoint as="offset"/>
                    </mxGeometry>
                </mxCell>
                <mxCell id="EbcNwqEwjGE9Cd5CzF3h-29" style="edgeStyle=orthogonalEdgeStyle;rounded=0;orthogonalLoop=1;jettySize=auto;html=1;exitX=1;exitY=0.5;exitDx=0;exitDy=0;entryX=0;entryY=0.5;entryDx=0;entryDy=0;" parent="1" source="EbcNwqEwjGE9Cd5CzF3h-5" target="EbcNwqEwjGE9Cd5CzF3h-11" edge="1">
                    <mxGeometry relative="1" as="geometry"/>
                </mxCell>
                <mxCell id="EbcNwqEwjGE9Cd5CzF3h-30" value="1" style="edgeLabel;html=1;align=center;verticalAlign=middle;resizable=0;points=[];" parent="EbcNwqEwjGE9Cd5CzF3h-29" vertex="1" connectable="0">
                    <mxGeometry x="-0.5145" y="2" relative="1" as="geometry">
                        <mxPoint as="offset"/>
                    </mxGeometry>
                </mxCell>
                <mxCell id="EbcNwqEwjGE9Cd5CzF3h-31" value="m" style="edgeLabel;html=1;align=center;verticalAlign=middle;resizable=0;points=[];" parent="EbcNwqEwjGE9Cd5CzF3h-29" vertex="1" connectable="0">
                    <mxGeometry x="0.52" relative="1" as="geometry">
                        <mxPoint as="offset"/>
                    </mxGeometry>
                </mxCell>
                <mxCell id="EbcNwqEwjGE9Cd5CzF3h-32" style="edgeStyle=orthogonalEdgeStyle;rounded=0;orthogonalLoop=1;jettySize=auto;html=1;exitX=0.75;exitY=0;exitDx=0;exitDy=0;entryX=0;entryY=0.5;entryDx=0;entryDy=0;" parent="1" source="EbcNwqEwjGE9Cd5CzF3h-5" target="EbcNwqEwjGE9Cd5CzF3h-14" edge="1">
                    <mxGeometry relative="1" as="geometry"/>
                </mxCell>
                <mxCell id="EbcNwqEwjGE9Cd5CzF3h-33" value="m" style="edgeLabel;html=1;align=center;verticalAlign=middle;resizable=0;points=[];" parent="EbcNwqEwjGE9Cd5CzF3h-32" vertex="1" connectable="0">
                    <mxGeometry x="0.5545" y="2" relative="1" as="geometry">
                        <mxPoint as="offset"/>
                    </mxGeometry>
                </mxCell>
                <mxCell id="EbcNwqEwjGE9Cd5CzF3h-34" value="1" style="edgeLabel;html=1;align=center;verticalAlign=middle;resizable=0;points=[];" parent="EbcNwqEwjGE9Cd5CzF3h-32" vertex="1" connectable="0">
                    <mxGeometry x="-0.6318" y="-1" relative="1" as="geometry">
                        <mxPoint as="offset"/>
                    </mxGeometry>
                </mxCell>
                <mxCell id="EbcNwqEwjGE9Cd5CzF3h-5" value="&lt;b style=&quot;font-size: 15px;&quot;&gt;&lt;font style=&quot;font-size: 15px;&quot;&gt;User id&amp;nbsp; (Required) (Unique)&lt;/font&gt;&lt;/b&gt;&lt;div style=&quot;font-size: 15px;&quot;&gt;&lt;b&gt;&lt;font style=&quot;font-size: 15px;&quot;&gt;User Name&amp;nbsp;&amp;nbsp;&lt;span style=&quot;background-color: initial;&quot;&gt;(Required) (Unique)&lt;/span&gt;&lt;/font&gt;&lt;/b&gt;&lt;/div&gt;&lt;div style=&quot;font-size: 15px;&quot;&gt;&lt;b&gt;&lt;font style=&quot;font-size: 15px;&quot;&gt;Email&amp;nbsp;&lt;span style=&quot;background-color: initial;&quot;&gt;(Required)&amp;nbsp;&lt;/span&gt;&lt;/font&gt;&lt;/b&gt;&lt;/div&gt;&lt;div style=&quot;font-size: 15px;&quot;&gt;&lt;b&gt;&lt;font style=&quot;font-size: 15px;&quot;&gt;Number&lt;span style=&quot;white-space: pre;&quot;&gt;&#9;&lt;/span&gt;(int)&lt;/font&gt;&lt;/b&gt;&lt;/div&gt;&lt;div style=&quot;font-size: 15px;&quot;&gt;&lt;b style=&quot;background-color: initial;&quot;&gt;Chats&amp;lt;List&amp;gt;(Chat Id)&amp;nbsp;&lt;/b&gt;&lt;br&gt;&lt;/div&gt;&lt;div style=&quot;font-size: 15px;&quot;&gt;&lt;b&gt;&lt;font style=&quot;font-size: 15px;&quot;&gt;Is Online&amp;nbsp;&lt;span style=&quot;white-space: pre;&quot;&gt;&#9;&lt;/span&gt;(bool)&lt;/font&gt;&lt;/b&gt;&lt;/div&gt;&lt;div style=&quot;font-size: 15px;&quot;&gt;&lt;b&gt;&lt;font style=&quot;font-size: 15px;&quot;&gt;Last Seen&amp;nbsp; (date time)&lt;/font&gt;&lt;/b&gt;&lt;/div&gt;&lt;div style=&quot;font-size: 15px;&quot;&gt;&lt;b&gt;&lt;font style=&quot;font-size: 15px;&quot;&gt;Created At (date time)&lt;/font&gt;&lt;/b&gt;&lt;/div&gt;&lt;div style=&quot;font-size: 15px;&quot;&gt;&lt;b&gt;&lt;font style=&quot;font-size: 15px;&quot;&gt;Last Updated At&amp;nbsp;&lt;span style=&quot;background-color: initial;&quot;&gt;(date time)&lt;/span&gt;&lt;/font&gt;&lt;/b&gt;&lt;/div&gt;&lt;div style=&quot;font-size: 15px;&quot;&gt;&lt;b&gt;&lt;font style=&quot;font-size: 15px;&quot;&gt;About&amp;nbsp; (String)&lt;/font&gt;&lt;/b&gt;&lt;/div&gt;&lt;div style=&quot;font-size: 15px;&quot;&gt;&lt;b&gt;&lt;font style=&quot;font-size: 15px;&quot;&gt;Calls&amp;lt;List&amp;gt;&lt;/font&gt;&lt;/b&gt;&lt;/div&gt;&lt;div style=&quot;font-size: 15px;&quot;&gt;&lt;b&gt;&lt;font style=&quot;font-size: 15px;&quot;&gt;Video Chats&amp;lt;List&amp;gt;&lt;/font&gt;&lt;/b&gt;&lt;/div&gt;&lt;div style=&quot;font-size: 15px;&quot;&gt;&lt;br&gt;&lt;/div&gt;" style="whiteSpace=wrap;html=1;aspect=fixed;align=left;" parent="1" vertex="1">
                    <mxGeometry x="660" y="340" width="240" height="240" as="geometry"/>
                </mxCell>
                <mxCell id="EbcNwqEwjGE9Cd5CzF3h-39" style="edgeStyle=orthogonalEdgeStyle;rounded=0;orthogonalLoop=1;jettySize=auto;html=1;exitX=0.5;exitY=1;exitDx=0;exitDy=0;" parent="1" source="EbcNwqEwjGE9Cd5CzF3h-7" target="EbcNwqEwjGE9Cd5CzF3h-8" edge="1">
                    <mxGeometry relative="1" as="geometry"/>
                </mxCell>
                <mxCell id="EbcNwqEwjGE9Cd5CzF3h-43" style="edgeStyle=orthogonalEdgeStyle;rounded=0;orthogonalLoop=1;jettySize=auto;html=1;exitX=1;exitY=0.5;exitDx=0;exitDy=0;entryX=0.25;entryY=0;entryDx=0;entryDy=0;" parent="1" source="EbcNwqEwjGE9Cd5CzF3h-7" target="EbcNwqEwjGE9Cd5CzF3h-4" edge="1">
                    <mxGeometry relative="1" as="geometry"/>
                </mxCell>
                <mxCell id="EbcNwqEwjGE9Cd5CzF3h-44" value="1" style="edgeLabel;html=1;align=center;verticalAlign=middle;resizable=0;points=[];" parent="EbcNwqEwjGE9Cd5CzF3h-43" vertex="1" connectable="0">
                    <mxGeometry x="-0.5407" y="1" relative="1" as="geometry">
                        <mxPoint as="offset"/>
                    </mxGeometry>
                </mxCell>
                <mxCell id="EbcNwqEwjGE9Cd5CzF3h-46" value="m" style="edgeLabel;html=1;align=center;verticalAlign=middle;resizable=0;points=[];" parent="EbcNwqEwjGE9Cd5CzF3h-43" vertex="1" connectable="0">
                    <mxGeometry x="0.7197" y="1" relative="1" as="geometry">
                        <mxPoint as="offset"/>
                    </mxGeometry>
                </mxCell>
                <mxCell id="EbcNwqEwjGE9Cd5CzF3h-7" value="Chats" style="rounded=1;whiteSpace=wrap;html=1;" parent="1" vertex="1">
                    <mxGeometry x="400" y="600" width="120" height="40" as="geometry"/>
                </mxCell>
                <mxCell id="EbcNwqEwjGE9Cd5CzF3h-8" value="&lt;b style=&quot;font-size: 15px;&quot;&gt;Chat Id&amp;nbsp; &amp;nbsp;(Unique)&lt;/b&gt;&lt;div style=&quot;font-size: 15px;&quot;&gt;&lt;b&gt;User Id&amp;lt;List&amp;gt;&amp;nbsp;&amp;nbsp;&lt;/b&gt;&lt;/div&gt;&lt;div style=&quot;font-size: 15px;&quot;&gt;&lt;b&gt;Message Id&amp;nbsp;&lt;/b&gt;&lt;/div&gt;&lt;div style=&quot;font-size: 15px;&quot;&gt;&lt;b&gt;Created At&lt;/b&gt;&lt;/div&gt;" style="rounded=0;whiteSpace=wrap;html=1;align=left;" parent="1" vertex="1">
                    <mxGeometry x="380" y="720" width="160" height="90" as="geometry"/>
                </mxCell>
                <mxCell id="EbcNwqEwjGE9Cd5CzF3h-9" value="&lt;b style=&quot;font-size: 14px;&quot;&gt;&lt;font style=&quot;font-size: 14px;&quot;&gt;Message Id (Unique)&lt;/font&gt;&lt;/b&gt;&lt;div style=&quot;font-size: 14px;&quot;&gt;&lt;b&gt;&lt;font style=&quot;font-size: 14px;&quot;&gt;User Id&lt;/font&gt;&lt;/b&gt;&lt;/div&gt;&lt;div style=&quot;font-size: 14px;&quot;&gt;&lt;b&gt;&lt;font style=&quot;font-size: 14px;&quot;&gt;Chat Id&lt;/font&gt;&lt;/b&gt;&lt;/div&gt;&lt;div style=&quot;font-size: 14px;&quot;&gt;&lt;b&gt;&lt;font style=&quot;font-size: 14px;&quot;&gt;Massage Type&lt;/font&gt;&lt;/b&gt;&lt;/div&gt;&lt;div style=&quot;font-size: 14px;&quot;&gt;&lt;b&gt;&lt;font style=&quot;font-size: 14px;&quot;&gt;Content&lt;/font&gt;&lt;/b&gt;&lt;/div&gt;&lt;div style=&quot;font-size: 14px;&quot;&gt;&lt;b style=&quot;&quot;&gt;&lt;font style=&quot;font-size: 14px;&quot;&gt;timestamp&lt;/font&gt;&lt;/b&gt;&lt;/div&gt;" style="rounded=0;whiteSpace=wrap;html=1;align=left;" parent="1" vertex="1">
                    <mxGeometry x="840" y="720" width="160" height="120" as="geometry"/>
                </mxCell>
                <mxCell id="EbcNwqEwjGE9Cd5CzF3h-10" style="edgeStyle=orthogonalEdgeStyle;rounded=0;orthogonalLoop=1;jettySize=auto;html=1;exitX=1;exitY=0.5;exitDx=0;exitDy=0;" parent="1" source="EbcNwqEwjGE9Cd5CzF3h-11" target="EbcNwqEwjGE9Cd5CzF3h-12" edge="1">
                    <mxGeometry relative="1" as="geometry"/>
                </mxCell>
                <mxCell id="EbcNwqEwjGE9Cd5CzF3h-28" value="" style="edgeStyle=orthogonalEdgeStyle;rounded=0;orthogonalLoop=1;jettySize=auto;html=1;" parent="1" source="EbcNwqEwjGE9Cd5CzF3h-11" target="EbcNwqEwjGE9Cd5CzF3h-12" edge="1">
                    <mxGeometry relative="1" as="geometry"/>
                </mxCell>
                <mxCell id="EbcNwqEwjGE9Cd5CzF3h-11" value="Calls" style="rounded=1;whiteSpace=wrap;html=1;" parent="1" vertex="1">
                    <mxGeometry x="1000" y="395" width="120" height="40" as="geometry"/>
                </mxCell>
                <mxCell id="EbcNwqEwjGE9Cd5CzF3h-12" value="&lt;b style=&quot;font-size: 13px;&quot;&gt;&lt;font style=&quot;font-size: 13px;&quot;&gt;Call Id(Unique)&lt;/font&gt;&lt;/b&gt;&lt;div style=&quot;font-size: 13px;&quot;&gt;&lt;b&gt;&lt;font style=&quot;font-size: 13px;&quot;&gt;User Id&amp;lt;List&amp;gt;&lt;/font&gt;&lt;/b&gt;&lt;/div&gt;&lt;div style=&quot;font-size: 13px;&quot;&gt;&lt;b&gt;&lt;font style=&quot;font-size: 13px;&quot;&gt;Start Time&lt;/font&gt;&lt;/b&gt;&lt;/div&gt;&lt;div style=&quot;font-size: 13px;&quot;&gt;&lt;b&gt;&lt;font style=&quot;font-size: 13px;&quot;&gt;End Time&lt;/font&gt;&lt;/b&gt;&lt;/div&gt;&lt;div style=&quot;font-size: 13px;&quot;&gt;&lt;span style=&quot;background-color: initial;&quot;&gt;&lt;b&gt;Recording&lt;/b&gt;&lt;/span&gt;&lt;/div&gt;" style="whiteSpace=wrap;html=1;aspect=fixed;align=left;" parent="1" vertex="1">
                    <mxGeometry x="1200" y="360" width="110" height="110" as="geometry"/>
                </mxCell>
                <mxCell id="EbcNwqEwjGE9Cd5CzF3h-13" style="edgeStyle=orthogonalEdgeStyle;rounded=0;orthogonalLoop=1;jettySize=auto;html=1;exitX=1;exitY=0.5;exitDx=0;exitDy=0;entryX=0;entryY=0.5;entryDx=0;entryDy=0;" parent="1" source="EbcNwqEwjGE9Cd5CzF3h-14" target="EbcNwqEwjGE9Cd5CzF3h-15" edge="1">
                    <mxGeometry relative="1" as="geometry"/>
                </mxCell>
                <mxCell id="EbcNwqEwjGE9Cd5CzF3h-14" value="Video Calls" style="rounded=1;whiteSpace=wrap;html=1;" parent="1" vertex="1">
                    <mxGeometry x="931" y="235" width="120" height="40" as="geometry"/>
                </mxCell>
                <mxCell id="EbcNwqEwjGE9Cd5CzF3h-15" value="&lt;b style=&quot;font-size: 13px;&quot;&gt;&lt;font style=&quot;font-size: 13px;&quot;&gt;Call Id(Unique)&lt;/font&gt;&lt;/b&gt;&lt;div style=&quot;font-size: 13px;&quot;&gt;&lt;b&gt;&lt;font style=&quot;font-size: 13px;&quot;&gt;User Id&amp;lt;List&amp;gt;&lt;/font&gt;&lt;/b&gt;&lt;/div&gt;&lt;div style=&quot;font-size: 13px;&quot;&gt;&lt;b&gt;&lt;font style=&quot;font-size: 13px;&quot;&gt;Start Time&lt;/font&gt;&lt;/b&gt;&lt;/div&gt;&lt;div style=&quot;font-size: 13px;&quot;&gt;&lt;b&gt;&lt;font style=&quot;font-size: 13px;&quot;&gt;End Time&lt;/font&gt;&lt;/b&gt;&lt;/div&gt;&lt;div style=&quot;font-size: 13px;&quot;&gt;&lt;span style=&quot;background-color: initial;&quot;&gt;&lt;b&gt;Recording&lt;/b&gt;&lt;/span&gt;&lt;/div&gt;" style="whiteSpace=wrap;html=1;aspect=fixed;align=left;" parent="1" vertex="1">
                    <mxGeometry x="1131" y="200" width="110" height="110" as="geometry"/>
                </mxCell>
                <mxCell id="EbcNwqEwjGE9Cd5CzF3h-16" style="edgeStyle=orthogonalEdgeStyle;rounded=0;orthogonalLoop=1;jettySize=auto;html=1;exitX=1;exitY=0.5;exitDx=0;exitDy=0;entryX=0;entryY=0.5;entryDx=0;entryDy=0;" parent="1" source="EbcNwqEwjGE9Cd5CzF3h-17" target="EbcNwqEwjGE9Cd5CzF3h-18" edge="1">
                    <mxGeometry relative="1" as="geometry"/>
                </mxCell>
                <mxCell id="EbcNwqEwjGE9Cd5CzF3h-35" style="edgeStyle=orthogonalEdgeStyle;rounded=0;orthogonalLoop=1;jettySize=auto;html=1;exitX=0.75;exitY=1;exitDx=0;exitDy=0;entryX=0.25;entryY=0;entryDx=0;entryDy=0;" parent="1" source="EbcNwqEwjGE9Cd5CzF3h-17" target="EbcNwqEwjGE9Cd5CzF3h-5" edge="1">
                    <mxGeometry relative="1" as="geometry"/>
                </mxCell>
                <mxCell id="EbcNwqEwjGE9Cd5CzF3h-36" value="m" style="edgeLabel;html=1;align=center;verticalAlign=middle;resizable=0;points=[];" parent="EbcNwqEwjGE9Cd5CzF3h-35" vertex="1" connectable="0">
                    <mxGeometry x="-0.7682" y="1" relative="1" as="geometry">
                        <mxPoint as="offset"/>
                    </mxGeometry>
                </mxCell>
                <mxCell id="EbcNwqEwjGE9Cd5CzF3h-37" value="1" style="edgeLabel;html=1;align=center;verticalAlign=middle;resizable=0;points=[];" parent="EbcNwqEwjGE9Cd5CzF3h-35" vertex="1" connectable="0">
                    <mxGeometry x="0.7358" y="1" relative="1" as="geometry">
                        <mxPoint as="offset"/>
                    </mxGeometry>
                </mxCell>
                <mxCell id="EbcNwqEwjGE9Cd5CzF3h-17" value="Status" style="rounded=1;whiteSpace=wrap;html=1;" parent="1" vertex="1">
                    <mxGeometry x="414" y="145" width="120" height="40" as="geometry"/>
                </mxCell>
                <mxCell id="EbcNwqEwjGE9Cd5CzF3h-18" value="&lt;b style=&quot;font-size: 15px;&quot;&gt;Status Id&amp;nbsp; &amp;nbsp;(Unique)&lt;/b&gt;&lt;div style=&quot;font-size: 15px;&quot;&gt;&lt;b&gt;User Id&lt;/b&gt;&lt;/div&gt;&lt;div style=&quot;font-size: 15px;&quot;&gt;&lt;b&gt;Seen By&amp;nbsp;&lt;/b&gt;&lt;/div&gt;&lt;div style=&quot;font-size: 15px;&quot;&gt;&lt;b&gt;Add Time&lt;/b&gt;&lt;/div&gt;&lt;div style=&quot;font-size: 15px;&quot;&gt;&lt;b&gt;Delete Time&lt;/b&gt;&lt;/div&gt;" style="rounded=0;whiteSpace=wrap;html=1;align=left;" parent="1" vertex="1">
                    <mxGeometry x="601" y="120" width="160" height="90" as="geometry"/>
                </mxCell>
                <mxCell id="EbcNwqEwjGE9Cd5CzF3h-19" style="edgeStyle=orthogonalEdgeStyle;rounded=0;orthogonalLoop=1;jettySize=auto;html=1;exitX=1;exitY=0.5;exitDx=0;exitDy=0;" parent="1" source="EbcNwqEwjGE9Cd5CzF3h-20" target="EbcNwqEwjGE9Cd5CzF3h-21" edge="1">
                    <mxGeometry relative="1" as="geometry"/>
                </mxCell>
                <mxCell id="EbcNwqEwjGE9Cd5CzF3h-20" value="Privacy" style="rounded=1;whiteSpace=wrap;html=1;" parent="1" vertex="1">
                    <mxGeometry x="960" y="645" width="120" height="40" as="geometry"/>
                </mxCell>
                <mxCell id="EbcNwqEwjGE9Cd5CzF3h-21" value="&lt;b style=&quot;font-size: 13px;&quot;&gt;&lt;font style=&quot;font-size: 13px;&quot;&gt;Privacy Id(Unique)&lt;/font&gt;&lt;/b&gt;&lt;div style=&quot;font-size: 13px;&quot;&gt;&lt;b&gt;&lt;font style=&quot;font-size: 13px;&quot;&gt;User Id&lt;/font&gt;&lt;/b&gt;&lt;/div&gt;&lt;div style=&quot;font-size: 13px;&quot;&gt;&lt;b&gt;Blocked&amp;nbsp;&lt;/b&gt;&lt;/div&gt;&lt;div style=&quot;font-size: 13px;&quot;&gt;&lt;b&gt;&lt;span style=&quot;white-space: pre;&quot;&gt;&#9;&lt;/span&gt;User&amp;nbsp; id&amp;lt;List&amp;gt;&lt;/b&gt;&lt;/div&gt;&lt;div style=&quot;font-size: 13px;&quot;&gt;&lt;b&gt;Show Status&amp;nbsp;&lt;/b&gt;&lt;/div&gt;&lt;div style=&quot;font-size: 13px;&quot;&gt;&lt;b&gt;&lt;span style=&quot;white-space: pre;&quot;&gt;&#9;&lt;/span&gt;User Id&amp;lt;List&amp;gt;&lt;/b&gt;&lt;/div&gt;&lt;div style=&quot;font-size: 13px;&quot;&gt;&lt;b&gt;Show Last Seen&amp;nbsp;&lt;/b&gt;&lt;/div&gt;&lt;div style=&quot;font-size: 13px;&quot;&gt;&lt;b&gt;&lt;span style=&quot;white-space: pre;&quot;&gt;&#9;&lt;/span&gt;User Id &amp;lt;List&amp;gt;&lt;/b&gt;&lt;/div&gt;&lt;div style=&quot;font-size: 13px;&quot;&gt;&lt;b&gt;Show Profile&amp;nbsp;&lt;/b&gt;&lt;/div&gt;&lt;div style=&quot;font-size: 13px;&quot;&gt;&lt;b&gt;&amp;nbsp;&lt;span style=&quot;white-space: pre;&quot;&gt;&#9;&lt;/span&gt;User Id &amp;lt;List&amp;gt;&lt;/b&gt;&lt;/div&gt;" style="whiteSpace=wrap;html=1;aspect=fixed;align=left;" parent="1" vertex="1">
                    <mxGeometry x="1160" y="580" width="170" height="170" as="geometry"/>
                </mxCell>
            </root>
        </mxGraphModel>
    </diagram>
</mxfile>